{"title":"Fangar S01 E02 - 720p x265 HEVC - ICE (ENG SUBS) [BRSHNKV]","magnet":"magnet:?xt=urn:btih:2df990563cb37bbf820a6f727c494ded997e0dc4&dn=Fangar+S01+E02+-+720p+x265+HEVC+-+ICE+%28ENG+SUBS%29+%5BBRSHNKV%5D&tr=udp%3A%2F%2Ftracker.leechers-paradise.org%3A6969&tr=udp%3A%2F%2Fzer0day.ch%3A1337&tr=udp%3A%2F%2Fopen.demonii.com%3A1337&tr=udp%3A%2F%2Ftracker.coppersurfer.tk%3A6969&tr=udp%3A%2F%2Fexodus.desync.com%3A6969","uploader":"BRSHNKV","categoryP":"video","categoryS":"hd___tv_shows","size":"381266517","seeders":"0","leechers":"0","description":"Linda is sent to serve time in Iceland&apos;s only women&apos;s prison for a vicious assault that leaves her father in a coma. But no-one knows that she harbors a dark secret that could tear her family apart, a secret that could set her free.\r\n\r\n\r\nTech:\r\n\r\nFormat                                   : MPEG-4\r\nFormat profile                           : Base Media / Version 2\r\nCodec ID                                 : mp42\r\nFile size                                : 364 MiB\r\nDuration                                 : 47mn 32s\r\nOverall bit rate mode                    : Variable\r\nOverall bit rate                         : 1 069 Kbps\r\nMovie name                               : Fangar S01 E02 - x265 HEVC [BRSHNKV]\r\nEncoded date                             : UTC 2018-01-31 17:33:57\r\nTagged date                              : UTC 2018-01-31 17:33:57\r\nWriting application                      : HandBrake 20160211184813-ffd8cb1-master 2016021301\r\n\r\nVideo\r\nID                                       : 1\r\nFormat                                   : HEVC\r\nFormat/Info                              : High Efficiency Video Coding\r\nFormat profile                           : Main <a href=\"/cdn-cgi/l/email-protection\" class=\"__cf_email__\" data-cfemail=\"c2f3f2828ef1ecf3\">[email&#xA0;protected]</a>@Main\r\nCodec ID                                 : hev1\r\nCodec ID/Info                            : High Efficiency Video Coding\r\nDuration                                 : 47mn 32s\r\nBit rate                                 : 901 Kbps\r\nWidth                                    : 1 280 pixels\r\nHeight                                   : 720 pixels\r\nDisplay aspect ratio                     : 16:9\r\nFrame rate mode                          : Constant\r\nFrame rate                               : 25.000 fps\r\nColor space                              : YUV\r\nChroma subsampling                       : 4:2:0\r\nBit depth                                : 10 bits\r\nBits/(Pixel*Frame)                       : 0.039\r\nStream size                              : 306 MiB (84%)\r\nWriting library                          : x265 1.9:[Mac OS X][clang 7.0.2][64 bit] 10bit\r\nEncoded date                             : UTC 2018-01-31 17:33:57\r\nTagged date                              : UTC 2018-01-31 17:33:57\r\nColor range                              : Limited\r\nColor primaries                          : BT.709\r\nTransfer characteristics                 : BT.709\r\nMatrix coefficients                      : BT.709\r\n\r\nAudio\r\nID                                       : 2\r\nFormat                                   : AAC\r\nFormat/Info                              : Advanced Audio Codec\r\nFormat profile                           : LC\r\nCodec ID                                 : 40\r\nDuration                                 : 47mn 31s\r\nBit rate mode                            : Variable\r\nBit rate                                 : 162 Kbps\r\nChannel(s)                               : 2 channels\r\nChannel positions                        : Front: L R\r\nSampling rate                            : 48.0 KHz\r\nCompression mode                         : Lossy\r\nStream size                              : 55.1 MiB (15%)\r\nTitle                                    : Stereo / Stereo\r\nLanguage                                 : Icelandic\r\nEncoded date                             : UTC 2018-01-31 17:33:57\r\nTagged date                              : UTC 2018-01-31 17:33:57","last_updated":"2018-02-05T12:00:40.710Z","parsed":{"xt":"urn:btih:2df990563cb37bbf820a6f727c494ded997e0dc4","dn":"Fangar S01 E02 - 720p x265 HEVC - ICE (ENG SUBS) [BRSHNKV]","tr":["udp://exodus.desync.com:6969","udp://open.demonii.com:1337","udp://tracker.coppersurfer.tk:6969","udp://tracker.leechers-paradise.org:6969","udp://zer0day.ch:1337"],"infoHash":"2df990563cb37bbf820a6f727c494ded997e0dc4","infoHashBuffer":{"type":"Buffer","data":[45,249,144,86,60,179,123,191,130,10,111,114,124,73,77,237,153,126,13,196]},"name":"Fangar S01 E02 - 720p x265 HEVC - ICE (ENG SUBS) [BRSHNKV]","announce":["udp://exodus.desync.com:6969","udp://open.demonii.com:1337","udp://tracker.coppersurfer.tk:6969","udp://tracker.leechers-paradise.org:6969","udp://zer0day.ch:1337"],"urlList":[]}}